<svg xmlns="http://www.w3.org/2000/svg" style="display: none">
  <!-- Male -->
  <symbol id="sex-male" viewBox="0 0 24 24">
    <path d="M15 15.5C15 19.0899 12.0899 22 8.5 22C4.91015 22 2 19.0899 2 15.5C2 11.9101 4.91015 9 8.5 9C12.0899 9 15 11.9101 15 15.5Z" stroke="currentColor" stroke-width="2" stroke-linecap="round" stroke-linejoin="round" />
    <path d="M15 2H22V9" stroke="currentColor" stroke-width="2" stroke-linecap="round" stroke-linejoin="round" />
    <path d="M13.5 10.5L22 2" stroke="currentColor" stroke-width="2" stroke-linecap="round" stroke-linejoin="round" />
  </symbol>

  <!-- Female -->
  <symbol id="sex-female" viewBox="0 0 24 24">
    <path d="M18.5 8.5C18.5 12.0899 15.5899 15 12 15C8.41015 15 5.5 12.0899 5.5 8.5C5.5 4.91015 8.41015 2 12 2C15.5899 2 18.5 4.91015 18.5 8.5Z" stroke="currentColor" stroke-width="2" stroke-linecap="round" stroke-linejoin="round" />
    <path d="M7.5 19H16.5" stroke="currentColor" stroke-width="2" stroke-linecap="round" stroke-linejoin="round" />
    <path d="M12 22L12 15" stroke="currentColor" stroke-width="2" stroke-linecap="round" stroke-linejoin="round" />
  </symbol>
</svg>